<svg width="756" height="250" viewBox="0 0 756 250" fill="none" xmlns="http://www.w3.org/2000/svg">
<path d="M230.035 140.24C230.147 141.584 230.203 142.536 230.203 143.096C230.24 143.656 230.259 144.123 230.259 144.496C230.259 145.131 230.035 145.672 229.587 146.12C229.176 146.568 228.579 146.792 227.795 146.792C226.936 146.792 226.339 146.531 226.003 146.008C225.667 145.523 225.499 145.019 225.499 144.496C225.499 144.347 225.499 144.067 225.499 143.656C225.536 143.208 225.574 142.704 225.611 142.144C225.648 141.584 225.667 141.005 225.667 140.408C225.704 139.773 225.723 139.195 225.723 138.672C225.723 137.925 225.704 137.104 225.667 136.208C225.63 135.312 225.611 134.584 225.611 134.024C225.611 133.651 225.63 133.221 225.667 132.736C225.704 132.213 225.798 131.747 225.947 131.336C226.096 130.925 226.32 130.571 226.619 130.272C226.918 129.973 227.328 129.824 227.851 129.824C228.486 129.824 228.971 130.011 229.307 130.384C229.643 130.757 229.904 131.205 230.091 131.728C230.278 132.213 230.408 132.717 230.483 133.24C230.558 133.763 230.632 134.192 230.707 134.528C230.894 135.237 231.286 136.003 231.883 136.824C232.48 137.645 233.246 138.411 234.179 139.12C235.15 139.792 236.251 140.371 237.483 140.856C238.752 141.304 240.115 141.528 241.571 141.528C243.923 141.528 245.752 141.024 247.059 140.016C248.403 138.971 249.075 137.757 249.075 136.376C249.075 135.331 248.72 134.416 248.011 133.632C247.302 132.848 246.35 132.12 245.155 131.448C243.998 130.739 242.672 130.067 241.179 129.432C239.686 128.797 238.155 128.125 236.587 127.416C235.467 126.893 234.291 126.277 233.059 125.568C231.827 124.859 230.707 123.981 229.699 122.936C228.691 121.853 227.851 120.547 227.179 119.016C226.544 117.485 226.227 115.656 226.227 113.528C226.227 111.176 226.638 109.048 227.459 107.144C228.28 105.24 229.363 103.616 230.707 102.272C232.088 100.928 233.675 99.9013 235.467 99.192C237.296 98.4827 239.2 98.128 241.179 98.128C243.382 98.128 245.174 98.6507 246.555 99.696C247.936 100.704 249.112 102.496 250.083 105.072C250.008 104.027 249.934 103.224 249.859 102.664C249.822 102.067 249.784 101.637 249.747 101.376C249.747 101.077 249.728 100.872 249.691 100.76C249.691 100.648 249.691 100.536 249.691 100.424C249.691 100.2 249.71 99.9573 249.747 99.696C249.822 99.4347 249.934 99.192 250.083 98.968C250.27 98.7067 250.531 98.5013 250.867 98.352C251.203 98.2027 251.632 98.128 252.155 98.128C252.715 98.128 253.144 98.2213 253.443 98.408C253.742 98.5947 253.966 98.8187 254.115 99.08C254.264 99.3413 254.358 99.6213 254.395 99.92C254.432 100.219 254.451 100.48 254.451 100.704C254.451 101.637 254.414 102.851 254.339 104.344C254.264 105.8 254.227 107.237 254.227 108.656C254.227 109.664 254.246 110.784 254.283 112.016C254.32 113.211 254.339 114.387 254.339 115.544C254.339 116.813 253.592 117.448 252.099 117.448C251.539 117.448 251.091 117.355 250.755 117.168C250.419 116.944 250.158 116.683 249.971 116.384C249.822 116.048 249.71 115.693 249.635 115.32C249.598 114.909 249.56 114.517 249.523 114.144C249.374 112.427 249.075 110.859 248.627 109.44C248.179 108.021 247.582 106.808 246.835 105.8C246.126 104.755 245.267 103.952 244.259 103.392C243.251 102.795 242.112 102.496 240.843 102.496C239.648 102.496 238.472 102.757 237.315 103.28C236.195 103.765 235.187 104.475 234.291 105.408C233.395 106.304 232.667 107.424 232.107 108.768C231.584 110.075 231.323 111.568 231.323 113.248C231.323 114.629 231.51 115.824 231.883 116.832C232.256 117.84 232.742 118.717 233.339 119.464C233.936 120.173 234.608 120.771 235.355 121.256C236.102 121.741 236.867 122.152 237.651 122.488C238.398 122.824 239.312 123.197 240.395 123.608C241.515 124.019 242.691 124.504 243.923 125.064C245.155 125.587 246.387 126.221 247.619 126.968C248.851 127.677 249.952 128.499 250.923 129.432C251.894 130.365 252.678 131.429 253.275 132.624C253.91 133.819 254.227 135.163 254.227 136.656C254.227 138.261 253.872 139.643 253.163 140.8C252.454 141.957 251.52 142.928 250.363 143.712C249.206 144.459 247.899 145 246.443 145.336C245.024 145.709 243.568 145.896 242.075 145.896C239.723 145.896 237.483 145.485 235.355 144.664C233.264 143.805 231.491 142.331 230.035 140.24ZM314.525 122.6C314.525 125.475 314.843 128.088 315.477 130.44C316.112 132.755 316.989 134.733 318.109 136.376C319.267 138.019 320.611 139.288 322.141 140.184C323.709 141.043 325.408 141.472 327.237 141.472C331.419 141.472 334.667 139.848 336.981 136.6C339.296 133.315 340.453 128.461 340.453 122.04C340.453 119.315 340.192 116.757 339.669 114.368C339.147 111.979 338.381 109.888 337.373 108.096C336.365 106.304 335.115 104.904 333.621 103.896C332.128 102.851 330.411 102.328 328.469 102.328C326.192 102.328 324.176 102.888 322.421 104.008C320.704 105.128 319.248 106.621 318.053 108.488C316.896 110.355 316.019 112.52 315.421 114.984C314.824 117.411 314.525 119.949 314.525 122.6ZM309.149 122.376C309.149 120.472 309.299 118.549 309.597 116.608C309.933 114.667 310.437 112.8 311.109 111.008C311.781 109.216 312.621 107.536 313.629 105.968C314.675 104.363 315.888 102.981 317.269 101.824C318.688 100.667 320.312 99.752 322.141 99.08C323.971 98.408 326.005 98.072 328.245 98.072C331.232 98.072 333.827 98.7253 336.029 100.032C338.232 101.301 340.061 103.037 341.517 105.24C342.973 107.443 344.056 110 344.765 112.912C345.475 115.824 345.829 118.904 345.829 122.152C345.829 126.707 345.232 130.515 344.037 133.576C342.843 136.6 341.331 139.027 339.501 140.856C337.672 142.685 335.656 143.992 333.453 144.776C331.251 145.523 329.141 145.896 327.125 145.896C324.587 145.896 322.216 145.448 320.013 144.552C317.848 143.619 315.944 142.2 314.301 140.296C312.696 138.392 311.427 135.965 310.493 133.016C309.597 130.029 309.149 126.483 309.149 122.376ZM363.897 103.728C362.926 103.728 362.329 103.915 362.105 104.288C361.918 104.661 361.825 105.389 361.825 106.472V110.616C361.825 111.811 361.601 112.632 361.153 113.08C360.705 113.491 360.089 113.696 359.305 113.696C358.782 113.696 358.241 113.565 357.681 113.304C357.158 113.005 356.897 112.315 356.897 111.232C356.897 110.933 356.897 110.56 356.897 110.112C356.897 109.664 356.897 109.216 356.897 108.768C356.934 108.283 356.953 107.816 356.953 107.368C356.953 106.883 356.953 106.491 356.953 106.192C356.953 105.595 356.934 104.811 356.897 103.84C356.897 102.869 356.897 102.067 356.897 101.432C356.897 100.349 357.027 99.6773 357.289 99.416C357.587 99.1547 358.166 99.024 359.025 99.024C360.406 99.024 361.713 99.0427 362.945 99.08C364.214 99.08 365.465 99.08 366.697 99.08C367.966 99.08 369.217 99.0987 370.449 99.136C371.718 99.136 373.043 99.136 374.425 99.136C377.187 99.136 379.763 99.1173 382.153 99.08C384.542 99.0427 387.118 99.024 389.881 99.024C390.777 99.024 391.355 99.1547 391.617 99.416C391.878 99.6773 392.009 100.349 392.009 101.432C392.009 102.067 391.99 102.869 391.953 103.84C391.953 104.811 391.953 105.595 391.953 106.192C391.953 106.491 391.953 106.883 391.953 107.368C391.953 107.816 391.953 108.283 391.953 108.768C391.99 109.216 392.009 109.664 392.009 110.112C392.009 110.56 392.009 110.933 392.009 111.232C392.009 112.352 391.766 113.043 391.281 113.304C390.795 113.565 390.291 113.696 389.769 113.696C388.723 113.696 388.014 113.491 387.641 113.08C387.267 112.632 387.081 111.811 387.081 110.616V106.472C387.081 105.352 386.969 104.624 386.745 104.288C386.558 103.915 385.979 103.728 385.009 103.728H376.945V141.248H381.369C381.593 141.248 381.835 141.285 382.097 141.36C382.358 141.397 382.601 141.491 382.825 141.64C383.086 141.752 383.291 141.939 383.441 142.2C383.627 142.461 383.721 142.797 383.721 143.208C383.721 143.619 383.59 144.029 383.329 144.44C383.067 144.813 382.694 145 382.209 145H367.649C367.126 145 366.603 144.925 366.081 144.776C365.558 144.589 365.297 144.179 365.297 143.544C365.297 142.051 366.155 141.229 367.873 141.08C368.358 141.043 368.825 140.987 369.273 140.912C369.721 140.837 370.113 140.707 370.449 140.52C370.785 140.333 371.046 140.072 371.233 139.736C371.457 139.363 371.569 138.877 371.569 138.28C371.569 136.899 371.569 135.592 371.569 134.36C371.606 133.091 371.643 131.821 371.681 130.552C371.718 129.283 371.737 127.995 371.737 126.688C371.774 125.381 371.793 124 371.793 122.544C371.793 121.125 371.774 119.613 371.737 118.008C371.737 116.403 371.718 114.779 371.681 113.136C371.643 111.493 371.606 109.869 371.569 108.264C371.569 106.659 371.569 105.147 371.569 103.728H363.897ZM408.883 103.728C407.912 103.728 407.315 103.915 407.091 104.288C406.904 104.661 406.811 105.389 406.811 106.472V110.616C406.811 111.811 406.587 112.632 406.139 113.08C405.691 113.491 405.075 113.696 404.291 113.696C403.768 113.696 403.227 113.565 402.667 113.304C402.144 113.005 401.883 112.315 401.883 111.232C401.883 110.933 401.883 110.56 401.883 110.112C401.883 109.664 401.883 109.216 401.883 108.768C401.92 108.283 401.939 107.816 401.939 107.368C401.939 106.883 401.939 106.491 401.939 106.192C401.939 105.595 401.92 104.811 401.883 103.84C401.883 102.869 401.883 102.067 401.883 101.432C401.883 100.349 402.013 99.6773 402.275 99.416C402.573 99.1547 403.152 99.024 404.011 99.024C405.392 99.024 406.699 99.0427 407.931 99.08C409.2 99.08 410.451 99.08 411.683 99.08C412.952 99.08 414.203 99.0987 415.435 99.136C416.704 99.136 418.029 99.136 419.411 99.136C422.173 99.136 424.749 99.1173 427.139 99.08C429.528 99.0427 432.104 99.024 434.867 99.024C435.763 99.024 436.341 99.1547 436.603 99.416C436.864 99.6773 436.995 100.349 436.995 101.432C436.995 102.067 436.976 102.869 436.939 103.84C436.939 104.811 436.939 105.595 436.939 106.192C436.939 106.491 436.939 106.883 436.939 107.368C436.939 107.816 436.939 108.283 436.939 108.768C436.976 109.216 436.995 109.664 436.995 110.112C436.995 110.56 436.995 110.933 436.995 111.232C436.995 112.352 436.752 113.043 436.267 113.304C435.781 113.565 435.277 113.696 434.755 113.696C433.709 113.696 433 113.491 432.627 113.08C432.253 112.632 432.067 111.811 432.067 110.616V106.472C432.067 105.352 431.955 104.624 431.731 104.288C431.544 103.915 430.965 103.728 429.995 103.728H421.931V141.248H426.355C426.579 141.248 426.821 141.285 427.083 141.36C427.344 141.397 427.587 141.491 427.811 141.64C428.072 141.752 428.277 141.939 428.427 142.2C428.613 142.461 428.707 142.797 428.707 143.208C428.707 143.619 428.576 144.029 428.315 144.44C428.053 144.813 427.68 145 427.195 145H412.635C412.112 145 411.589 144.925 411.067 144.776C410.544 144.589 410.283 144.179 410.283 143.544C410.283 142.051 411.141 141.229 412.859 141.08C413.344 141.043 413.811 140.987 414.259 140.912C414.707 140.837 415.099 140.707 415.435 140.52C415.771 140.333 416.032 140.072 416.219 139.736C416.443 139.363 416.555 138.877 416.555 138.28C416.555 136.899 416.555 135.592 416.555 134.36C416.592 133.091 416.629 131.821 416.667 130.552C416.704 129.283 416.723 127.995 416.723 126.688C416.76 125.381 416.779 124 416.779 122.544C416.779 121.125 416.76 119.613 416.723 118.008C416.723 116.403 416.704 114.779 416.667 113.136C416.629 111.493 416.592 109.869 416.555 108.264C416.555 106.659 416.555 105.147 416.555 103.728H408.883ZM480.469 127.192C480.991 127.192 481.477 127.341 481.925 127.64C482.373 127.939 482.597 128.405 482.597 129.04C482.597 129.376 482.578 130.085 482.541 131.168C482.503 132.251 482.429 133.501 482.317 134.92C482.242 136.301 482.149 137.739 482.037 139.232C481.925 140.725 481.813 142.032 481.701 143.152C481.626 143.936 481.439 144.44 481.141 144.664C480.879 144.888 480.282 145 479.349 145C477.071 145 474.85 144.981 472.685 144.944C470.557 144.907 468.354 144.888 466.077 144.888C464.957 144.888 463.743 144.907 462.437 144.944C461.13 144.944 459.823 144.944 458.517 144.944C457.21 144.944 455.903 144.963 454.597 145C453.29 145 452.077 145 450.957 145C449.986 145 449.295 144.851 448.885 144.552C448.474 144.253 448.269 143.787 448.269 143.152C448.269 142.331 448.549 141.771 449.109 141.472C449.669 141.136 450.341 140.949 451.125 140.912C452.207 140.837 452.917 140.651 453.253 140.352C453.589 140.016 453.757 139.531 453.757 138.896C453.757 137.701 453.757 136.675 453.757 135.816C453.757 134.957 453.757 134.155 453.757 133.408C453.794 132.661 453.813 131.933 453.813 131.224C453.813 130.477 453.813 129.656 453.813 128.76C453.85 127.827 453.869 126.763 453.869 125.568C453.869 124.373 453.869 122.917 453.869 121.2C453.869 119.296 453.85 117.616 453.813 116.16C453.775 114.704 453.738 113.36 453.701 112.128C453.663 110.896 453.626 109.739 453.589 108.656C453.551 107.573 453.533 106.472 453.533 105.352C453.533 104.269 453.365 103.635 453.029 103.448C452.693 103.261 452.133 103.168 451.349 103.168C450.415 103.168 449.65 103.019 449.053 102.72C448.493 102.384 448.213 101.899 448.213 101.264C448.213 100.293 448.437 99.6773 448.885 99.416C449.37 99.1547 450.21 99.024 451.405 99.024C452.637 99.024 453.943 99.0427 455.325 99.08C456.743 99.08 458.106 99.08 459.413 99.08C460.757 99.08 461.989 99.0987 463.109 99.136C464.229 99.136 465.143 99.136 465.853 99.136C467.234 99.136 468.354 99.136 469.213 99.136C470.109 99.0987 470.967 99.08 471.789 99.08C472.647 99.08 473.581 99.08 474.589 99.08C475.597 99.0427 476.922 99.024 478.565 99.024C479.087 99.024 479.479 99.1733 479.741 99.472C480.002 99.7333 480.133 100.256 480.133 101.04V108.992C480.133 110 479.946 110.691 479.573 111.064C479.237 111.4 478.658 111.568 477.837 111.568C476.866 111.568 476.175 111.325 475.765 110.84C475.391 110.355 475.205 109.851 475.205 109.328V105.296C475.205 104.624 475.018 104.195 474.645 104.008C474.271 103.821 473.767 103.728 473.133 103.728H459.021V119.016C459.543 119.053 459.991 119.091 460.365 119.128C460.738 119.128 461.093 119.147 461.429 119.184C461.802 119.184 462.175 119.184 462.549 119.184C462.922 119.184 463.389 119.184 463.949 119.184C464.322 119.184 464.751 119.184 465.237 119.184C465.722 119.147 466.189 119.128 466.637 119.128C467.085 119.091 467.477 119.072 467.813 119.072C468.186 119.035 468.447 119.016 468.597 119.016C468.821 119.016 468.989 118.867 469.101 118.568C469.25 118.269 469.343 117.915 469.381 117.504C469.455 117.056 469.493 116.627 469.493 116.216C469.53 115.768 469.549 115.413 469.549 115.152C469.549 114.592 469.735 114.107 470.109 113.696C470.519 113.285 471.117 113.08 471.901 113.08C472.535 113.08 473.095 113.229 473.581 113.528C474.066 113.789 474.309 114.368 474.309 115.264C474.309 116.347 474.29 117.392 474.253 118.4C474.215 119.371 474.197 120.397 474.197 121.48C474.197 122.563 474.215 123.664 474.253 124.784C474.29 125.904 474.309 126.893 474.309 127.752C474.309 128.984 473.525 129.6 471.957 129.6C470.986 129.6 470.351 129.395 470.053 128.984C469.791 128.573 469.661 128.125 469.661 127.64C469.661 127.341 469.623 126.987 469.549 126.576C469.474 126.128 469.325 125.699 469.101 125.288C468.914 124.877 468.634 124.541 468.261 124.28C467.925 123.981 467.495 123.832 466.973 123.832C466.674 123.832 466.282 123.832 465.797 123.832C465.311 123.795 464.695 123.776 463.949 123.776C463.426 123.776 462.959 123.776 462.549 123.776C462.175 123.776 461.821 123.795 461.485 123.832C461.149 123.832 460.775 123.851 460.365 123.888C459.991 123.888 459.543 123.888 459.021 123.888V140.296H474.589C474.85 140.296 475.111 140.277 475.373 140.24C475.671 140.203 475.933 140.128 476.157 140.016C476.381 139.867 476.567 139.661 476.717 139.4C476.866 139.101 476.959 138.709 476.997 138.224C477.034 137.664 477.09 136.992 477.165 136.208C477.239 135.424 477.314 134.621 477.389 133.8C477.463 132.979 477.519 132.176 477.557 131.392C477.631 130.608 477.687 129.899 477.725 129.264C477.762 128.443 478.061 127.901 478.621 127.64C479.181 127.341 479.797 127.192 480.469 127.192ZM495.118 101.544C495.118 100.872 495.286 100.331 495.622 99.92C495.958 99.472 496.443 99.2293 497.078 99.192C498.945 99.1173 500.923 99.08 503.014 99.08C505.105 99.0427 507.289 99.024 509.566 99.024C511.918 99.024 514.363 99.3973 516.902 100.144C519.441 100.891 521.755 102.104 523.846 103.784C525.937 105.464 527.654 107.667 528.998 110.392C530.342 113.117 531.014 116.459 531.014 120.416C531.014 123.776 530.547 126.949 529.614 129.936C528.718 132.923 527.355 135.536 525.526 137.776C523.697 139.979 521.401 141.733 518.638 143.04C515.875 144.347 512.665 145 509.006 145H497.19C495.809 145 495.118 144.421 495.118 143.264C495.118 142.405 495.323 141.827 495.734 141.528C496.145 141.192 496.723 140.987 497.47 140.912C498.515 140.837 499.281 140.707 499.766 140.52C500.289 140.333 500.55 140.016 500.55 139.568C500.55 137.589 500.55 135.947 500.55 134.64C500.55 133.333 500.55 132.045 500.55 130.776C500.587 129.507 500.606 128.107 500.606 126.576C500.606 125.008 500.606 122.992 500.606 120.528C500.606 119.856 500.587 118.885 500.55 117.616C500.513 116.347 500.457 115.003 500.382 113.584C500.345 112.128 500.307 110.728 500.27 109.384C500.233 108.003 500.214 106.883 500.214 106.024C500.214 105.053 499.915 104.419 499.318 104.12C498.721 103.821 498.011 103.672 497.19 103.672C495.809 103.672 495.118 102.963 495.118 101.544ZM509.23 103.672C508.67 103.672 508.091 103.709 507.494 103.784C506.897 103.821 506.318 103.859 505.758 103.896V139.848C505.758 139.997 505.87 140.109 506.094 140.184C506.355 140.259 506.654 140.315 506.99 140.352C507.326 140.389 507.699 140.408 508.11 140.408C508.521 140.408 508.894 140.408 509.23 140.408C512.105 140.408 514.569 139.904 516.622 138.896C518.713 137.888 520.411 136.488 521.718 134.696C523.062 132.904 524.051 130.795 524.686 128.368C525.321 125.904 525.638 123.253 525.638 120.416C525.638 118.139 525.321 115.992 524.686 113.976C524.051 111.923 523.062 110.131 521.718 108.6C520.374 107.069 518.657 105.875 516.566 105.016C514.513 104.12 512.067 103.672 509.23 103.672Z" fill="black"/>
<path d="M276.92 130.27L276.214 127.938L276.76 126.87C281.002 128.743 285.898 129.162 290.65 127.723C301.248 124.513 307.236 113.321 304.027 102.724C300.817 92.1267 289.625 86.1382 279.028 89.3478C268.431 92.5573 262.442 103.749 265.652 114.346C267.091 119.099 270.156 122.94 274.068 125.429L273.483 126.477L271.151 127.183L260.891 146.404L266.621 149.47L276.92 130.27ZM271.556 112.558C269.33 105.208 273.466 97.4777 280.816 95.2516C288.166 93.0255 295.897 97.1618 298.123 104.512C300.349 111.862 296.213 119.593 288.862 121.819C281.512 124.045 273.782 119.909 271.556 112.558Z" fill="black"/>
<path d="M280.792 103C282.206 103.001 283.436 103.777 284.086 104.926C284.364 105.271 284.792 105.27 285.07 104.926C285.722 103.78 286.954 103.006 288.368 103.008C290.46 103.01 292.154 104.707 292.152 106.799C292.146 112.115 286.453 115.274 284.935 116.021C284.702 116.136 284.431 116.136 284.199 116.021C282.682 115.27 276.995 112.1 277 106.784C277.002 104.692 278.7 102.998 280.792 103Z" fill="#FF6288"/>
</svg>
