<svg width="57" height="57" viewBox="0 0 57 57" fill="none" xmlns="http://www.w3.org/2000/svg">
<path d="M26.4575 35.5432L26.0266 34.1208L26.3601 33.4694C28.9472 34.6123 31.9338 34.8675 34.8328 33.9895C41.2969 32.0318 44.9497 25.2051 42.992 18.741C41.0342 12.2768 34.2076 8.62403 27.7435 10.5818C21.2793 12.5395 17.6265 19.3662 19.5843 25.8303C20.4622 28.7293 22.3317 31.0724 24.718 32.5907L24.361 33.2295L22.9386 33.6603L16.6803 45.3845L20.1757 47.2549L26.4575 35.5432ZM23.1855 24.7397C21.8276 20.2562 24.3506 15.5409 28.8341 14.183C33.3176 12.8251 38.0329 15.3482 39.3908 19.8316C40.7487 24.3151 38.2256 29.0304 33.7421 30.3883C29.2587 31.7462 24.5433 29.2231 23.1855 24.7397Z" fill="black"/>
<path d="M28.8195 18.9092C29.6817 18.91 30.4324 19.3834 30.8286 20.0839C30.9985 20.2943 31.2593 20.2936 31.4288 20.0843C31.8264 19.3847 32.5784 18.913 33.4406 18.9139C34.7165 18.9151 35.75 19.9507 35.7486 21.2267C35.7453 24.4693 32.2725 26.3958 31.3464 26.8519C31.2045 26.9217 31.0391 26.9215 30.8973 26.8514C29.9722 26.3934 26.5032 24.4599 26.5064 21.2173C26.5077 19.9413 27.5434 18.9079 28.8195 18.9092Z" fill="#FF6288"/>
</svg>
